<svg xmlns="http://www.w3.org/2000/svg" xmlns:xlink="http://www.w3.org/1999/xlink" width="500" zoomAndPan="magnify" viewBox="0 0 375 374.999991" height="500" preserveAspectRatio="xMidYMid meet" version="1.0"><defs><g/><clipPath id="f2fe78eff2"><path d="M 19.390625 48.335938 L 355.390625 48.335938 L 355.390625 219.335938 L 19.390625 219.335938 Z M 19.390625 48.335938 " clip-rule="nonzero"/></clipPath></defs><g clip-path="url(#f2fe78eff2)"><path fill="#242424" d="M 326.363281 213.269531 C 326.4375 210.960938 326.554688 208.640625 326.695312 206.367188 C 327.136719 199.222656 327.59375 191.835938 325.976562 184.75 C 324.296875 177.375 320.625 170.851562 317.074219 164.542969 C 315.449219 161.65625 313.917969 158.933594 312.5625 156.140625 C 311.167969 153.246094 309.902344 150.144531 308.679688 147.144531 C 305.964844 140.488281 303.15625 133.609375 298.535156 127.828125 C 293.914062 122.03125 287.839844 117.773438 281.957031 113.65625 C 279.296875 111.789062 276.542969 109.863281 274.035156 107.855469 C 271.582031 105.890625 269.257812 103.78125 266.792969 101.542969 C 264.769531 99.707031 262.671875 97.851562 260.519531 96.058594 L 271.015625 77.878906 C 318.4375 106.539062 348.113281 157.917969 349.179688 213.269531 Z M 192.847656 213.269531 L 257.382812 101.492188 C 259.164062 103.007812 260.929688 104.566406 262.640625 106.121094 C 265.066406 108.320312 267.570312 110.59375 270.171875 112.679688 C 272.835938 114.808594 275.671875 116.796875 278.414062 118.71875 C 284.1875 122.761719 289.640625 126.582031 293.707031 131.683594 C 297.769531 136.769531 300.289062 142.941406 302.957031 149.480469 C 304.214844 152.566406 305.519531 155.757812 307 158.828125 C 308.4375 161.800781 310.089844 164.734375 311.6875 167.574219 C 315.023438 173.496094 318.472656 179.621094 319.953125 186.125 C 320.695312 189.375 320.933594 192.738281 320.933594 196.210938 C 320.933594 199.378906 320.734375 202.636719 320.527344 205.984375 C 320.378906 208.371094 320.230469 210.8125 320.152344 213.269531 Z M 54.859375 213.269531 C 54.78125 210.8125 54.632812 208.371094 54.484375 205.984375 C 54.046875 198.972656 53.636719 192.34375 55.058594 186.121094 C 56.539062 179.621094 59.988281 173.496094 63.324219 167.574219 C 64.917969 164.734375 66.574219 161.800781 68.011719 158.824219 C 69.492188 155.757812 70.792969 152.566406 72.054688 149.480469 C 74.722656 142.941406 77.238281 136.769531 81.304688 131.679688 C 85.371094 126.582031 90.824219 122.761719 96.597656 118.71875 C 99.339844 116.796875 102.175781 114.808594 104.835938 112.683594 C 107.484375 110.570312 110.035156 108.25 112.5 106.007812 C 114.167969 104.492188 115.878906 102.972656 117.609375 101.496094 L 182.140625 213.269531 Z M 25.8125 213.269531 C 26.878906 157.917969 56.554688 106.539062 103.976562 77.878906 L 114.472656 96.0625 C 112.371094 97.824219 110.320312 99.636719 108.34375 101.433594 C 105.839844 103.710938 103.472656 105.863281 100.976562 107.851562 C 98.46875 109.863281 95.714844 111.789062 93.050781 113.65625 C 87.171875 117.773438 81.09375 122.03125 76.476562 127.824219 C 71.855469 133.609375 69.046875 140.488281 66.332031 147.144531 C 65.109375 150.144531 63.84375 153.246094 62.449219 156.136719 C 61.09375 158.933594 59.558594 161.65625 57.9375 164.542969 C 54.386719 170.851562 50.710938 177.375 49.035156 184.75 C 48.171875 188.527344 47.898438 192.386719 47.898438 196.25 C 47.898438 199.640625 48.109375 203.03125 48.316406 206.367188 C 48.457031 208.640625 48.574219 210.960938 48.648438 213.269531 Z M 246.453125 93.953125 C 248.425781 94.902344 250.417969 96.101562 252.5 97.589844 L 187.496094 210.179688 L 122.496094 97.597656 C 124.585938 96.109375 126.589844 94.90625 128.558594 93.953125 C 134.382812 91.148438 140.976562 90.0625 147.953125 88.914062 C 151.246094 88.371094 154.652344 87.8125 157.976562 87.054688 C 161.207031 86.324219 164.453125 85.363281 167.597656 84.4375 C 174.085938 82.519531 180.796875 80.539062 187.496094 80.539062 C 194.210938 80.539062 200.925781 82.523438 207.421875 84.441406 C 210.5625 85.367188 213.808594 86.324219 217.03125 87.054688 C 220.359375 87.8125 223.765625 88.371094 227.054688 88.914062 C 234.035156 90.0625 240.628906 91.148438 246.453125 93.953125 Z M 187.496094 54.644531 C 214.910156 54.644531 241.859375 61.613281 265.667969 74.785156 L 255.597656 92.226562 C 253.40625 90.6875 251.265625 89.410156 249.132812 88.386719 C 242.507812 85.191406 235.164062 83.984375 228.058594 82.816406 C 224.859375 82.289062 221.546875 81.746094 218.398438 81.027344 C 215.367188 80.339844 212.355469 79.453125 209.171875 78.511719 C 202.253906 76.472656 195.105469 74.359375 187.496094 74.359375 C 179.902344 74.359375 172.757812 76.46875 165.847656 78.511719 C 162.65625 79.453125 159.644531 80.339844 156.609375 81.027344 C 153.460938 81.746094 150.152344 82.289062 146.949219 82.816406 C 139.847656 83.984375 132.5 85.191406 125.871094 88.386719 C 123.742188 89.417969 121.601562 90.699219 119.398438 92.234375 L 109.324219 74.789062 C 133.148438 61.613281 160.101562 54.644531 187.496094 54.644531 Z M 323.191406 219.449219 L 352.300781 219.449219 C 354.003906 219.449219 355.390625 218.066406 355.390625 216.359375 C 355.390625 156.605469 323.230469 100.886719 271.46875 70.945312 C 246.074219 56.238281 217.035156 48.464844 187.496094 48.464844 C 157.976562 48.464844 128.941406 56.238281 103.527344 70.941406 C 51.757812 100.886719 19.601562 156.605469 19.601562 216.359375 C 19.601562 218.066406 20.984375 219.449219 22.691406 219.449219 L 187.394531 219.449219 C 187.429688 219.449219 187.460938 219.457031 187.496094 219.457031 C 187.527344 219.457031 187.558594 219.449219 187.59375 219.449219 L 323.191406 219.449219 " fill-opacity="1" fill-rule="nonzero"/></g><path fill="#242424" d="M 265.597656 144.789062 C 265.597656 142.707031 267.292969 141.011719 269.375 141.011719 C 271.460938 141.011719 273.15625 142.707031 273.15625 144.789062 C 273.15625 146.875 271.460938 148.570312 269.375 148.570312 C 267.292969 148.570312 265.597656 146.875 265.597656 144.789062 Z M 269.375 154.75 C 274.871094 154.75 279.335938 150.28125 279.335938 144.789062 C 279.335938 139.300781 274.871094 134.832031 269.375 134.832031 C 263.886719 134.832031 259.417969 139.300781 259.417969 144.789062 C 259.417969 150.28125 263.886719 154.75 269.375 154.75 " fill-opacity="1" fill-rule="nonzero"/><path fill="#242424" d="M 287.757812 193.527344 C 287.757812 191.445312 289.453125 189.75 291.539062 189.75 C 293.621094 189.75 295.316406 191.445312 295.316406 193.527344 C 295.316406 195.613281 293.621094 197.308594 291.539062 197.308594 C 289.453125 197.308594 287.757812 195.613281 287.757812 193.527344 Z M 301.496094 193.527344 C 301.496094 188.035156 297.027344 183.570312 291.539062 183.570312 C 286.046875 183.570312 281.578125 188.035156 281.578125 193.527344 C 281.578125 199.019531 286.046875 203.488281 291.539062 203.488281 C 297.027344 203.488281 301.496094 199.019531 301.496094 193.527344 " fill-opacity="1" fill-rule="nonzero"/><path fill="#242424" d="M 241.316406 193.527344 C 241.316406 191.445312 243.011719 189.75 245.09375 189.75 C 247.179688 189.75 248.871094 191.445312 248.871094 193.527344 C 248.871094 195.613281 247.179688 197.308594 245.09375 197.308594 C 243.011719 197.308594 241.316406 195.613281 241.316406 193.527344 Z M 255.054688 193.527344 C 255.054688 188.039062 250.585938 183.570312 245.09375 183.570312 C 239.601562 183.570312 235.136719 188.039062 235.136719 193.527344 C 235.136719 199.019531 239.601562 203.488281 245.09375 203.488281 C 250.585938 203.488281 255.054688 199.019531 255.054688 193.527344 " fill-opacity="1" fill-rule="nonzero"/><path fill="#242424" d="M 264.4375 185.597656 C 266.109375 185.242188 267.175781 183.59375 266.816406 181.933594 L 264.242188 169.828125 C 263.890625 168.160156 262.246094 167.09375 260.578125 167.449219 C 259.125 167.757812 258.132812 169.042969 258.132812 170.46875 C 258.132812 170.683594 258.152344 170.898438 258.199219 171.117188 L 260.773438 183.21875 C 261.128906 184.886719 262.773438 185.953125 264.4375 185.597656 " fill-opacity="1" fill-rule="nonzero"/><path fill="#242424" d="M 285.984375 169.839844 C 286.410156 171.492188 288.09375 172.488281 289.746094 172.0625 L 294.871094 170.742188 C 296.523438 170.3125 297.53125 168.621094 297.09375 166.976562 C 296.667969 165.324219 294.980469 164.328125 293.328125 164.753906 L 288.207031 166.074219 C 286.8125 166.433594 285.886719 167.691406 285.886719 169.066406 C 285.886719 169.320312 285.917969 169.582031 285.984375 169.839844 " fill-opacity="1" fill-rule="nonzero"/><path fill="#242424" d="M 223.242188 200.023438 C 224.890625 199.59375 225.898438 197.90625 225.460938 196.257812 C 225.039062 194.605469 223.351562 193.613281 221.699219 194.035156 L 216.570312 195.359375 C 215.179688 195.71875 214.253906 196.972656 214.253906 198.347656 C 214.253906 198.605469 214.285156 198.863281 214.351562 199.121094 C 214.777344 200.773438 216.464844 201.769531 218.117188 201.34375 L 223.242188 200.023438 " fill-opacity="1" fill-rule="nonzero"/><path fill="#242424" d="M 249.03125 153.8125 L 247.832031 152.585938 C 246.640625 151.363281 244.6875 151.339844 243.464844 152.53125 C 242.84375 153.140625 242.53125 153.941406 242.53125 154.746094 C 242.53125 155.523438 242.824219 156.300781 243.40625 156.902344 L 244.605469 158.128906 C 245.796875 159.351562 247.75 159.375 248.972656 158.183594 C 250.199219 156.988281 250.21875 155.03125 249.03125 153.8125 " fill-opacity="1" fill-rule="nonzero"/><path fill="#242424" d="M 227.597656 174.363281 L 226.398438 173.140625 C 225.207031 171.917969 223.25 171.894531 222.03125 173.089844 C 221.410156 173.695312 221.097656 174.496094 221.097656 175.296875 C 221.097656 176.078125 221.390625 176.855469 221.976562 177.457031 L 223.175781 178.683594 C 224.367188 179.902344 226.324219 179.925781 227.542969 178.734375 C 228.761719 177.542969 228.785156 175.585938 227.597656 174.363281 " fill-opacity="1" fill-rule="nonzero"/><path fill="#242424" d="M 264.628906 196.460938 C 264.628906 197.242188 264.921875 198.019531 265.507812 198.621094 L 266.699219 199.847656 C 267.890625 201.066406 269.847656 201.09375 271.070312 199.902344 C 272.292969 198.710938 272.316406 196.753906 271.125 195.53125 L 269.929688 194.304688 C 268.742188 193.085938 266.785156 193.058594 265.5625 194.25 C 264.941406 194.855469 264.628906 195.660156 264.628906 196.460938 " fill-opacity="1" fill-rule="nonzero"/><path fill="#242424" d="M 303.710938 195.191406 C 303.710938 195.96875 304.003906 196.75 304.589844 197.351562 L 305.789062 198.574219 C 306.980469 199.796875 308.941406 199.820312 310.160156 198.625 C 311.378906 197.433594 311.402344 195.480469 310.210938 194.257812 L 309.011719 193.03125 C 307.820312 191.8125 305.863281 191.789062 304.644531 192.980469 C 304.023438 193.585938 303.710938 194.386719 303.710938 195.191406 " fill-opacity="1" fill-rule="nonzero"/><path fill="#242424" d="M 252.441406 140.820312 L 255.71875 129.351562 C 256.179688 127.710938 255.234375 126 253.59375 125.53125 C 251.953125 125.0625 250.242188 126.015625 249.773438 127.65625 L 246.5 139.125 C 246.421875 139.410156 246.382812 139.691406 246.382812 139.972656 C 246.382812 141.320312 247.265625 142.554688 248.625 142.945312 C 250.265625 143.414062 251.976562 142.460938 252.441406 140.820312 " fill-opacity="1" fill-rule="nonzero"/><path fill="#242424" d="M 134.761719 190.441406 C 135.972656 191.140625 136.652344 192.414062 136.652344 193.722656 C 136.652344 194.363281 136.488281 195.011719 136.144531 195.605469 C 135.105469 197.410156 132.785156 198.027344 130.980469 196.988281 C 130.109375 196.484375 129.484375 195.667969 129.222656 194.691406 C 128.964844 193.71875 129.09375 192.699219 129.601562 191.824219 C 130.640625 190.019531 132.957031 189.402344 134.761719 190.441406 Z M 137.851562 185.089844 C 133.097656 182.34375 126.996094 183.980469 124.25 188.734375 C 123.347656 190.300781 122.914062 192.007812 122.914062 193.699219 C 122.914062 197.144531 124.703125 200.496094 127.890625 202.339844 C 132.652344 205.085938 138.753906 203.449219 141.5 198.691406 C 144.242188 193.9375 142.605469 187.835938 137.851562 185.089844 " fill-opacity="1" fill-rule="nonzero"/><path fill="#242424" d="M 77.695312 191.8125 C 75.890625 190.769531 75.269531 188.453125 76.3125 186.648438 C 77.351562 184.84375 79.667969 184.226562 81.472656 185.265625 C 82.683594 185.964844 83.363281 187.238281 83.363281 188.546875 C 83.363281 189.1875 83.199219 189.832031 82.855469 190.425781 C 82.351562 191.304688 81.539062 191.929688 80.5625 192.1875 C 79.589844 192.449219 78.570312 192.316406 77.695312 191.8125 Z M 82.160156 198.160156 C 84.734375 197.46875 86.878906 195.820312 88.207031 193.515625 C 90.953125 188.765625 89.316406 182.664062 84.5625 179.914062 C 79.808594 177.167969 73.707031 178.804688 70.960938 183.558594 C 70.054688 185.125 69.628906 186.832031 69.628906 188.523438 C 69.628906 191.964844 71.414062 195.320312 74.605469 197.164062 C 76.90625 198.492188 79.589844 198.847656 82.160156 198.160156 " fill-opacity="1" fill-rule="nonzero"/><path fill="#242424" d="M 104.695312 145.042969 C 106.496094 146.085938 107.121094 148.398438 106.078125 150.207031 C 105.039062 152.011719 102.722656 152.628906 100.917969 151.589844 C 99.113281 150.546875 98.492188 148.234375 99.53125 146.425781 C 100.574219 144.621094 102.890625 144.003906 104.695312 145.042969 Z M 107.785156 139.691406 C 103.027344 136.945312 96.925781 138.582031 94.179688 143.335938 C 93.277344 144.898438 92.847656 146.609375 92.847656 148.296875 C 92.847656 151.742188 94.636719 155.097656 97.828125 156.941406 C 102.582031 159.6875 108.683594 158.050781 111.429688 153.296875 C 114.175781 148.542969 112.539062 142.4375 107.785156 139.691406 " fill-opacity="1" fill-rule="nonzero"/><path fill="#242424" d="M 115.664062 170.871094 L 103.894531 167.046875 C 102.273438 166.523438 100.527344 167.410156 100 169.035156 C 99.898438 169.351562 99.851562 169.671875 99.851562 169.988281 C 99.851562 171.292969 100.679688 172.503906 101.988281 172.925781 L 113.757812 176.75 C 115.378906 177.277344 117.121094 176.390625 117.648438 174.765625 C 118.171875 173.144531 117.289062 171.398438 115.664062 170.871094 " fill-opacity="1" fill-rule="nonzero"/><path fill="#242424" d="M 102.875 195.570312 C 101.230469 195.113281 99.527344 196.078125 99.070312 197.722656 L 97.652344 202.820312 C 97.574219 203.097656 97.539062 203.375 97.539062 203.648438 C 97.539062 205.003906 98.433594 206.246094 99.800781 206.625 C 101.445312 207.082031 103.148438 206.121094 103.605469 204.476562 L 105.023438 199.378906 C 105.476562 197.734375 104.519531 196.027344 102.875 195.570312 " fill-opacity="1" fill-rule="nonzero"/><path fill="#242424" d="M 109.527344 121.046875 L 108.109375 126.144531 C 108.03125 126.421875 107.996094 126.699219 107.996094 126.972656 C 107.996094 128.328125 108.890625 129.570312 110.257812 129.949219 C 111.902344 130.40625 113.605469 129.445312 114.0625 127.800781 L 115.480469 122.703125 C 115.933594 121.0625 114.976562 119.355469 113.332031 118.894531 C 111.6875 118.441406 109.984375 119.402344 109.527344 121.046875 " fill-opacity="1" fill-rule="nonzero"/><path fill="#242424" d="M 133.707031 165.59375 C 132.3125 165.949219 131.382812 167.207031 131.382812 168.585938 C 131.382812 168.839844 131.410156 169.09375 131.476562 169.351562 C 131.898438 171.003906 133.582031 172.003906 135.234375 171.582031 L 136.894531 171.160156 C 138.546875 170.738281 139.550781 169.054688 139.125 167.402344 C 138.703125 165.746094 137.019531 164.75 135.367188 165.171875 L 133.707031 165.59375 " fill-opacity="1" fill-rule="nonzero"/><path fill="#242424" d="M 126.625 136.757812 C 125.226562 137.113281 124.296875 138.371094 124.296875 139.75 C 124.296875 140 124.328125 140.257812 124.394531 140.515625 C 124.816406 142.167969 126.5 143.167969 128.152344 142.742188 L 129.808594 142.320312 C 131.464844 141.898438 132.464844 140.21875 132.039062 138.5625 C 131.617188 136.910156 129.933594 135.910156 128.28125 136.332031 L 126.625 136.757812 " fill-opacity="1" fill-rule="nonzero"/><path fill="#242424" d="M 86.527344 163.871094 C 85.132812 164.226562 84.203125 165.484375 84.203125 166.863281 C 84.203125 167.117188 84.234375 167.371094 84.300781 167.628906 C 84.722656 169.28125 86.402344 170.28125 88.058594 169.859375 L 89.714844 169.433594 C 91.371094 169.015625 92.371094 167.339844 91.945312 165.675781 C 91.523438 164.023438 89.839844 163.027344 88.1875 163.449219 L 86.527344 163.871094 " fill-opacity="1" fill-rule="nonzero"/><path fill="#242424" d="M 71.277344 203.921875 C 72.929688 203.5 73.925781 201.816406 73.507812 200.164062 C 73.085938 198.507812 71.402344 197.511719 69.75 197.929688 L 68.089844 198.355469 C 66.691406 198.710938 65.761719 199.96875 65.761719 201.347656 C 65.761719 201.597656 65.792969 201.855469 65.855469 202.109375 C 66.28125 203.765625 67.960938 204.765625 69.617188 204.34375 L 71.277344 203.921875 " fill-opacity="1" fill-rule="nonzero"/><path fill="#242424" d="M 143.90625 178.886719 C 143.90625 179.660156 144.195312 180.433594 144.777344 181.035156 L 153.074219 189.605469 C 154.261719 190.832031 156.21875 190.863281 157.445312 189.675781 C 158.675781 188.488281 158.703125 186.53125 157.515625 185.304688 L 149.214844 176.734375 C 148.027344 175.507812 146.074219 175.476562 144.847656 176.664062 C 144.21875 177.273438 143.90625 178.078125 143.90625 178.886719 " fill-opacity="1" fill-rule="nonzero"/><path fill="#242424" d="M 218.007812 116.53125 C 218.984375 116.792969 219.796875 117.417969 220.304688 118.292969 C 220.644531 118.886719 220.808594 119.535156 220.808594 120.175781 C 220.808594 121.480469 220.128906 122.753906 218.917969 123.453125 C 217.113281 124.496094 214.796875 123.875 213.757812 122.070312 C 212.71875 120.265625 213.339844 117.949219 215.140625 116.910156 C 216.015625 116.40625 217.035156 116.269531 218.007812 116.53125 Z M 207.074219 120.199219 C 207.074219 121.886719 207.503906 123.597656 208.40625 125.160156 C 211.152344 129.914062 217.253906 131.550781 222.007812 128.804688 C 226.765625 126.058594 228.398438 119.960938 225.652344 115.203125 C 222.910156 110.445312 216.804688 108.8125 212.050781 111.558594 C 208.859375 113.398438 207.074219 116.753906 207.074219 120.199219 " fill-opacity="1" fill-rule="nonzero"/><path fill="#242424" d="M 189.175781 161.855469 C 189.515625 162.449219 189.679688 163.097656 189.679688 163.734375 C 189.679688 165.042969 189.003906 166.316406 187.792969 167.015625 C 185.988281 168.058594 183.671875 167.4375 182.628906 165.632812 C 181.589844 163.824219 182.210938 161.515625 184.015625 160.472656 C 185.816406 159.429688 188.132812 160.050781 189.175781 161.855469 Z M 180.921875 155.121094 C 177.730469 156.960938 175.945312 160.316406 175.945312 163.761719 C 175.945312 165.449219 176.375 167.160156 177.277344 168.722656 C 180.023438 173.480469 186.128906 175.113281 190.882812 172.367188 C 195.640625 169.621094 197.273438 163.519531 194.527344 158.765625 C 191.78125 154.007812 185.679688 152.375 180.921875 155.121094 " fill-opacity="1" fill-rule="nonzero"/><path fill="#242424" d="M 159.40625 125.410156 C 158.90625 124.535156 158.773438 123.515625 159.027344 122.542969 C 159.289062 121.566406 159.914062 120.753906 160.792969 120.25 C 161.667969 119.746094 162.683594 119.609375 163.660156 119.871094 C 164.632812 120.132812 165.449219 120.757812 165.953125 121.628906 C 166.296875 122.222656 166.457031 122.875 166.457031 123.515625 C 166.457031 124.820312 165.78125 126.09375 164.570312 126.792969 C 162.765625 127.835938 160.449219 127.214844 159.40625 125.410156 Z M 171.304688 118.542969 C 168.558594 113.785156 162.457031 112.152344 157.703125 114.894531 C 155.398438 116.226562 153.746094 118.375 153.058594 120.945312 C 152.832031 121.800781 152.714844 122.671875 152.714844 123.535156 C 152.714844 125.261719 153.167969 126.964844 154.054688 128.5 C 156.800781 133.253906 162.902344 134.890625 167.660156 132.144531 C 172.414062 129.402344 174.054688 123.300781 171.304688 118.542969 " fill-opacity="1" fill-rule="nonzero"/><path fill="#242424" d="M 193.007812 123.890625 C 191.867188 122.625 189.910156 122.523438 188.640625 123.664062 L 179.449219 131.945312 C 178.769531 132.554688 178.425781 133.394531 178.425781 134.242188 C 178.425781 134.976562 178.6875 135.71875 179.222656 136.308594 C 180.363281 137.578125 182.316406 137.679688 183.585938 136.535156 L 192.777344 128.257812 C 194.046875 127.113281 194.148438 125.160156 193.007812 123.890625 " fill-opacity="1" fill-rule="nonzero"/><path fill="#242424" d="M 202.710938 149.296875 C 202.710938 150.078125 203.007812 150.859375 203.597656 151.460938 L 207.304688 155.238281 C 208.5 156.457031 210.457031 156.472656 211.675781 155.28125 C 212.894531 154.082031 212.914062 152.125 211.714844 150.910156 L 208.007812 147.128906 C 206.8125 145.914062 204.859375 145.894531 203.636719 147.089844 C 203.023438 147.695312 202.710938 148.496094 202.710938 149.296875 " fill-opacity="1" fill-rule="nonzero"/><path fill="#242424" d="M 150.539062 103.511719 L 146.832031 99.734375 C 145.636719 98.515625 143.683594 98.5 142.464844 99.695312 C 141.847656 100.300781 141.539062 101.097656 141.539062 101.898438 C 141.539062 102.679688 141.832031 103.464844 142.421875 104.066406 L 146.132812 107.84375 C 147.324219 109.0625 149.28125 109.078125 150.5 107.882812 C 151.71875 106.6875 151.742188 104.730469 150.539062 103.511719 " fill-opacity="1" fill-rule="nonzero"/><path fill="#242424" d="M 197.363281 101.609375 C 195.722656 101.148438 194.015625 102.109375 193.554688 103.75 L 193.09375 105.398438 C 193.015625 105.679688 192.976562 105.960938 192.976562 106.238281 C 192.976562 107.585938 193.871094 108.828125 195.234375 109.210938 C 196.875 109.671875 198.582031 108.710938 199.042969 107.070312 L 199.507812 105.421875 C 199.964844 103.777344 199.007812 102.074219 197.363281 101.609375 " fill-opacity="1" fill-rule="nonzero"/><path fill="#242424" d="M 165.039062 95.46875 L 164.578125 97.117188 C 164.5 97.394531 164.464844 97.675781 164.464844 97.953125 C 164.464844 99.304688 165.355469 100.542969 166.71875 100.925781 C 168.363281 101.386719 170.066406 100.429688 170.527344 98.785156 L 170.992188 97.136719 C 171.453125 95.492188 170.496094 93.789062 168.851562 93.328125 C 167.207031 92.867188 165.5 93.824219 165.039062 95.46875 " fill-opacity="1" fill-rule="nonzero"/><path fill="#242424" d="M 168.472656 143.746094 L 168.011719 145.394531 C 167.933594 145.675781 167.894531 145.957031 167.894531 146.234375 C 167.894531 147.582031 168.789062 148.824219 170.152344 149.207031 C 171.796875 149.667969 173.5 148.710938 173.960938 147.066406 L 174.425781 145.417969 C 174.882812 143.773438 173.925781 142.070312 172.285156 141.605469 C 170.640625 141.144531 168.933594 142.105469 168.472656 143.746094 " fill-opacity="1" fill-rule="nonzero"/><path fill="#242424" d="M 189.121094 176.957031 L 188.65625 178.605469 C 188.578125 178.886719 188.542969 179.167969 188.542969 179.445312 C 188.542969 180.792969 189.433594 182.035156 190.796875 182.417969 C 192.441406 182.878906 194.148438 181.921875 194.609375 180.277344 L 195.070312 178.628906 C 195.53125 176.984375 194.574219 175.28125 192.929688 174.820312 C 191.285156 174.359375 189.582031 175.316406 189.121094 176.957031 " fill-opacity="1" fill-rule="nonzero"/><path fill="#242424" d="M 210.5 97.539062 C 209.09375 97.890625 208.160156 99.148438 208.160156 100.53125 C 208.160156 100.78125 208.1875 101.035156 208.253906 101.285156 C 208.667969 102.941406 210.347656 103.945312 212 103.53125 L 223.570312 100.632812 C 225.230469 100.21875 226.234375 98.542969 225.816406 96.882812 C 225.402344 95.226562 223.722656 94.222656 222.070312 94.636719 L 210.5 97.539062 " fill-opacity="1" fill-rule="nonzero"/><g fill="#242424" fill-opacity="1"><g transform="translate(1.969103, 264.042972)"><g><path d="M 2.3125 0 L 2.3125 -30.625 C 5.320312 -30.914062 9.640625 -31.0625 15.265625 -31.0625 C 20.148438 -31.0625 23.484375 -30.335938 25.265625 -28.890625 C 27.054688 -27.441406 27.953125 -24.691406 27.953125 -20.640625 C 27.953125 -16.640625 27.125 -13.914062 25.46875 -12.46875 C 23.8125 -11.019531 20.851562 -10.296875 16.59375 -10.296875 C 15 -10.296875 13.445312 -10.382812 11.9375 -10.5625 L 11.9375 0 Z M 11.9375 -17.078125 L 15.046875 -17.078125 C 16.347656 -17.078125 17.21875 -17.3125 17.65625 -17.78125 C 18.101562 -18.257812 18.328125 -19.210938 18.328125 -20.640625 C 18.328125 -22.085938 18.101562 -23.050781 17.65625 -23.53125 C 17.21875 -24.019531 16.347656 -24.265625 15.046875 -24.265625 L 11.9375 -24.265625 Z M 11.9375 -17.078125 "/></g></g></g><g fill="#242424" fill-opacity="1"><g transform="translate(34.539034, 264.042972)"><g><path d="M 4.75 -32.34375 L 8.703125 -32.34375 C 10.503906 -32.34375 11.40625 -31.425781 11.40625 -29.59375 L 11.40625 -27.328125 C 11.40625 -25.492188 10.503906 -24.578125 8.703125 -24.578125 L 4.75 -24.578125 C 2.945312 -24.578125 2.046875 -25.492188 2.046875 -27.328125 L 2.046875 -29.59375 C 2.046875 -31.425781 2.945312 -32.34375 4.75 -32.34375 Z M 11.359375 0 L 2.078125 0 L 2.078125 -22.1875 L 11.359375 -22.1875 Z M 11.359375 0 "/></g></g></g><g fill="#242424" fill-opacity="1"><g transform="translate(51.889404, 264.042972)"><g><path d="M 22.71875 -5.984375 L 22.71875 0 L 1.28125 0 L 1.28125 -5.984375 L 11.578125 -16.203125 L 1.546875 -16.203125 L 1.546875 -22.1875 L 22.453125 -22.1875 L 22.453125 -16.203125 L 12.15625 -5.984375 Z M 22.71875 -5.984375 "/></g></g></g><g fill="#242424" fill-opacity="1"><g transform="translate(79.800288, 264.042972)"><g><path d="M 22.71875 -5.984375 L 22.71875 0 L 1.28125 0 L 1.28125 -5.984375 L 11.578125 -16.203125 L 1.546875 -16.203125 L 1.546875 -22.1875 L 22.453125 -22.1875 L 22.453125 -16.203125 L 12.15625 -5.984375 Z M 22.71875 -5.984375 "/></g></g></g><g fill="#242424" fill-opacity="1"><g transform="translate(107.711173, 264.042972)"><g><path d="M 2.96875 -15.796875 L 2.125 -21.703125 C 6.15625 -22.441406 10.375 -22.8125 14.78125 -22.8125 C 18.0625 -22.8125 20.5 -22.128906 22.09375 -20.765625 C 23.695312 -19.398438 24.5 -17.0625 24.5 -13.75 L 24.5 0 L 17.078125 0 L 16.234375 -3.109375 C 14.285156 -0.617188 11.726562 0.625 8.5625 0.625 C 6.375 0.625 4.554688 0.078125 3.109375 -1.015625 C 1.660156 -2.109375 0.9375 -3.664062 0.9375 -5.6875 L 0.9375 -7.90625 C 0.9375 -9.675781 1.585938 -11.070312 2.890625 -12.09375 C 4.191406 -13.113281 5.976562 -13.625 8.25 -13.625 L 15.171875 -13.625 L 15.171875 -13.796875 C 15.140625 -14.597656 14.929688 -15.164062 14.546875 -15.5 C 14.171875 -15.84375 13.507812 -16.015625 12.5625 -16.015625 C 9.300781 -16.015625 6.101562 -15.941406 2.96875 -15.796875 Z M 9.984375 -7.765625 L 9.984375 -7.0625 C 9.984375 -6.144531 10.601562 -5.6875 11.84375 -5.6875 C 12.820312 -5.6875 13.929688 -6.054688 15.171875 -6.796875 L 15.171875 -9.140625 L 11.671875 -9.140625 C 10.546875 -9.140625 9.984375 -8.679688 9.984375 -7.765625 Z M 9.984375 -7.765625 "/></g></g></g><g fill="#242424" fill-opacity="1"><g transform="translate(137.796277, 264.042972)"><g><path d="M 19.96875 -22.8125 L 19.171875 -14.28125 L 16.8125 -14.28125 C 15.25 -14.28125 13.390625 -14.132812 11.234375 -13.84375 L 11.234375 0 L 1.90625 0 L 1.90625 -22.1875 L 9.1875 -22.1875 L 10.03125 -18.953125 C 12.78125 -21.523438 15.664062 -22.8125 18.6875 -22.8125 Z M 19.96875 -22.8125 "/></g></g></g><g fill="#242424" fill-opacity="1"><g transform="translate(161.758061, 264.042972)"><g><path d="M 4.75 -32.34375 L 8.703125 -32.34375 C 10.503906 -32.34375 11.40625 -31.425781 11.40625 -29.59375 L 11.40625 -27.328125 C 11.40625 -25.492188 10.503906 -24.578125 8.703125 -24.578125 L 4.75 -24.578125 C 2.945312 -24.578125 2.046875 -25.492188 2.046875 -27.328125 L 2.046875 -29.59375 C 2.046875 -31.425781 2.945312 -32.34375 4.75 -32.34375 Z M 11.359375 0 L 2.078125 0 L 2.078125 -22.1875 L 11.359375 -22.1875 Z M 11.359375 0 "/></g></g></g><g fill="#242424" fill-opacity="1"><g transform="translate(179.108431, 264.042972)"><g><path d="M 2.96875 -15.796875 L 2.125 -21.703125 C 6.15625 -22.441406 10.375 -22.8125 14.78125 -22.8125 C 18.0625 -22.8125 20.5 -22.128906 22.09375 -20.765625 C 23.695312 -19.398438 24.5 -17.0625 24.5 -13.75 L 24.5 0 L 17.078125 0 L 16.234375 -3.109375 C 14.285156 -0.617188 11.726562 0.625 8.5625 0.625 C 6.375 0.625 4.554688 0.078125 3.109375 -1.015625 C 1.660156 -2.109375 0.9375 -3.664062 0.9375 -5.6875 L 0.9375 -7.90625 C 0.9375 -9.675781 1.585938 -11.070312 2.890625 -12.09375 C 4.191406 -13.113281 5.976562 -13.625 8.25 -13.625 L 15.171875 -13.625 L 15.171875 -13.796875 C 15.140625 -14.597656 14.929688 -15.164062 14.546875 -15.5 C 14.171875 -15.84375 13.507812 -16.015625 12.5625 -16.015625 C 9.300781 -16.015625 6.101562 -15.941406 2.96875 -15.796875 Z M 9.984375 -7.765625 L 9.984375 -7.0625 C 9.984375 -6.144531 10.601562 -5.6875 11.84375 -5.6875 C 12.820312 -5.6875 13.929688 -6.054688 15.171875 -6.796875 L 15.171875 -9.140625 L 11.671875 -9.140625 C 10.546875 -9.140625 9.984375 -8.679688 9.984375 -7.765625 Z M 9.984375 -7.765625 "/></g></g></g><g fill="#242424" fill-opacity="1"><g transform="translate(209.193535, 264.042972)"><g/></g></g><g fill="#242424" fill-opacity="1"><g transform="translate(222.417317, 264.042972)"><g><path d="M 19.34375 -6.609375 L 10.953125 -6.609375 L 9.40625 0 L -0.40625 0 L 7.546875 -28.140625 C 7.753906 -28.878906 8.148438 -29.476562 8.734375 -29.9375 C 9.328125 -30.394531 10.007812 -30.625 10.78125 -30.625 L 19.53125 -30.625 C 20.289062 -30.625 20.96875 -30.394531 21.5625 -29.9375 C 22.15625 -29.476562 22.554688 -28.878906 22.765625 -28.140625 L 30.703125 0 L 20.90625 0 Z M 17.796875 -13.359375 L 16.28125 -19.921875 C 16.019531 -21.316406 15.84375 -22.488281 15.75 -23.4375 L 14.5625 -23.4375 C 14.375 -22.039062 14.191406 -20.867188 14.015625 -19.921875 L 12.515625 -13.359375 Z M 17.796875 -13.359375 "/></g></g></g><g fill="#242424" fill-opacity="1"><g transform="translate(256.629008, 264.042972)"><g><path d="M 25.609375 -31.0625 L 25.609375 0 L 18.1875 0 L 17.4375 -3.640625 C 15.957031 -0.859375 13.238281 0.53125 9.28125 0.53125 C 6.46875 0.53125 4.425781 -0.472656 3.15625 -2.484375 C 1.882812 -4.492188 1.25 -7.453125 1.25 -11.359375 C 1.25 -15.710938 1.921875 -18.707031 3.265625 -20.34375 C 4.609375 -21.988281 6.742188 -22.8125 9.671875 -22.8125 C 12.515625 -22.8125 14.78125 -22.1875 16.46875 -20.9375 C 16.34375 -23.007812 16.28125 -24.625 16.28125 -25.78125 L 16.28125 -31.0625 Z M 16.28125 -7.59375 L 16.28125 -16.15625 C 15.3125 -16.539062 14.351562 -16.734375 13.40625 -16.734375 C 12.394531 -16.734375 11.710938 -16.414062 11.359375 -15.78125 C 11.003906 -15.144531 10.828125 -13.703125 10.828125 -11.453125 C 10.828125 -9.523438 10.992188 -8.285156 11.328125 -7.734375 C 11.671875 -7.191406 12.316406 -6.921875 13.265625 -6.921875 C 14.390625 -6.921875 15.394531 -7.144531 16.28125 -7.59375 Z M 16.28125 -7.59375 "/></g></g></g><g fill="#242424" fill-opacity="1"><g transform="translate(288.045293, 264.042972)"><g><path d="M 2.96875 -15.796875 L 2.125 -21.703125 C 6.15625 -22.441406 10.375 -22.8125 14.78125 -22.8125 C 18.0625 -22.8125 20.5 -22.128906 22.09375 -20.765625 C 23.695312 -19.398438 24.5 -17.0625 24.5 -13.75 L 24.5 0 L 17.078125 0 L 16.234375 -3.109375 C 14.285156 -0.617188 11.726562 0.625 8.5625 0.625 C 6.375 0.625 4.554688 0.078125 3.109375 -1.015625 C 1.660156 -2.109375 0.9375 -3.664062 0.9375 -5.6875 L 0.9375 -7.90625 C 0.9375 -9.675781 1.585938 -11.070312 2.890625 -12.09375 C 4.191406 -13.113281 5.976562 -13.625 8.25 -13.625 L 15.171875 -13.625 L 15.171875 -13.796875 C 15.140625 -14.597656 14.929688 -15.164062 14.546875 -15.5 C 14.171875 -15.84375 13.507812 -16.015625 12.5625 -16.015625 C 9.300781 -16.015625 6.101562 -15.941406 2.96875 -15.796875 Z M 9.984375 -7.765625 L 9.984375 -7.0625 C 9.984375 -6.144531 10.601562 -5.6875 11.84375 -5.6875 C 12.820312 -5.6875 13.929688 -6.054688 15.171875 -6.796875 L 15.171875 -9.140625 L 11.671875 -9.140625 C 10.546875 -9.140625 9.984375 -8.679688 9.984375 -7.765625 Z M 9.984375 -7.765625 "/></g></g></g><g fill="#242424" fill-opacity="1"><g transform="translate(318.130396, 264.042972)"><g/></g></g><g fill="#242424" fill-opacity="1"><g transform="translate(331.354179, 264.042972)"><g><path d="M 15.625 -27.25 L 4.296875 -22.671875 L 1.78125 -26.484375 L 12.109375 -33.140625 Z M 15.625 -27.25 "/></g></g></g><g fill="#242424" fill-opacity="1"><g transform="translate(335.259868, 264.042972)"><g/></g></g><g fill="#242424" fill-opacity="1"><g transform="translate(348.48365, 264.042972)"><g><path d="M 11.765625 -7.71875 L 6.875 -9.046875 C 4.601562 -9.703125 3.066406 -10.601562 2.265625 -11.75 C 1.460938 -12.90625 1.0625 -14.429688 1.0625 -16.328125 C 1.0625 -18.460938 1.84375 -20.078125 3.40625 -21.171875 C 4.976562 -22.265625 7.628906 -22.8125 11.359375 -22.8125 C 15.765625 -22.8125 19.550781 -22.484375 22.71875 -21.828125 L 22.140625 -16.421875 L 13.40625 -16.421875 C 11.800781 -16.421875 10.84375 -16.394531 10.53125 -16.34375 C 10.226562 -16.300781 10.078125 -16.144531 10.078125 -15.875 C 10.078125 -15.613281 10.578125 -15.363281 11.578125 -15.125 C 12.023438 -15.007812 12.394531 -14.910156 12.6875 -14.828125 L 17.796875 -13.53125 C 19.835938 -12.96875 21.320312 -12.175781 22.25 -11.15625 C 23.1875 -10.132812 23.65625 -8.691406 23.65625 -6.828125 C 23.65625 -4.046875 22.847656 -2.128906 21.234375 -1.078125 C 19.617188 -0.0351562 16.84375 0.484375 12.90625 0.484375 C 8.832031 0.484375 4.988281 0.175781 1.375 -0.4375 L 1.953125 -5.859375 L 9.84375 -5.859375 C 12.039062 -5.859375 13.390625 -5.882812 13.890625 -5.9375 C 14.390625 -6 14.640625 -6.191406 14.640625 -6.515625 C 14.640625 -6.578125 14.628906 -6.628906 14.609375 -6.671875 C 14.597656 -6.722656 14.570312 -6.769531 14.53125 -6.8125 C 14.488281 -6.851562 14.441406 -6.890625 14.390625 -6.921875 C 14.347656 -6.953125 14.28125 -6.988281 14.1875 -7.03125 C 14.101562 -7.070312 14.007812 -7.097656 13.90625 -7.109375 C 13.800781 -7.128906 13.664062 -7.171875 13.5 -7.234375 C 13.34375 -7.296875 13.191406 -7.335938 13.046875 -7.359375 C 12.898438 -7.390625 12.707031 -7.441406 12.46875 -7.515625 C 12.226562 -7.585938 11.992188 -7.65625 11.765625 -7.71875 Z M 11.765625 -7.71875 "/></g></g></g><g fill="#242424" fill-opacity="1"><g transform="translate(79.861413, 316.539505)"><g><path d="M 1.859375 0 L 6.171875 -30.625 C 9.773438 -30.882812 13.101562 -31.015625 16.15625 -31.015625 C 21.007812 -31.015625 24.265625 -29.84375 25.921875 -27.5 C 27.578125 -25.164062 27.988281 -21.039062 27.15625 -15.125 C 26.832031 -12.851562 26.453125 -10.898438 26.015625 -9.265625 C 25.585938 -7.640625 25.054688 -6.25 24.421875 -5.09375 C 23.785156 -3.945312 23.097656 -3.019531 22.359375 -2.3125 C 21.617188 -1.601562 20.703125 -1.039062 19.609375 -0.625 C 18.515625 -0.207031 17.390625 0.0664062 16.234375 0.203125 C 15.085938 0.335938 13.6875 0.40625 12.03125 0.40625 C 9.1875 0.40625 5.796875 0.269531 1.859375 0 Z M 10.125 -27.109375 L 6.796875 -3.546875 C 9.335938 -3.492188 11.066406 -3.46875 11.984375 -3.46875 C 14.378906 -3.46875 16.210938 -3.757812 17.484375 -4.34375 C 18.753906 -4.9375 19.785156 -6.078125 20.578125 -7.765625 C 21.378906 -9.453125 22.035156 -12.023438 22.546875 -15.484375 C 22.835938 -17.492188 23 -19.15625 23.03125 -20.46875 C 23.0625 -21.789062 22.960938 -22.910156 22.734375 -23.828125 C 22.515625 -24.742188 22.109375 -25.429688 21.515625 -25.890625 C 20.929688 -26.347656 20.21875 -26.671875 19.375 -26.859375 C 18.53125 -27.054688 17.425781 -27.15625 16.0625 -27.15625 C 15.707031 -27.15625 14.816406 -27.144531 13.390625 -27.125 C 11.972656 -27.113281 10.882812 -27.109375 10.125 -27.109375 Z M 10.125 -27.109375 "/></g></g></g><g fill="#242424" fill-opacity="1"><g transform="translate(116.381234, 316.539505)"><g><path d="M 19.65625 -3.59375 L 19.921875 -0.703125 C 17.828125 0.117188 14.851562 0.53125 11 0.53125 C 7.300781 0.53125 4.742188 -0.4375 3.328125 -2.375 C 1.910156 -4.3125 1.46875 -7.320312 2 -11.40625 C 2.5625 -15.570312 3.707031 -18.414062 5.4375 -19.9375 C 7.164062 -21.46875 10.015625 -22.234375 13.984375 -22.234375 C 17.347656 -22.234375 19.632812 -21.640625 20.84375 -20.453125 C 22.0625 -19.273438 22.507812 -17.53125 22.1875 -15.21875 C 21.832031 -13.113281 21.003906 -11.597656 19.703125 -10.671875 C 18.398438 -9.742188 16.40625 -9.175781 13.71875 -8.96875 L 6.21875 -8.296875 C 6.1875 -6.253906 6.613281 -4.867188 7.5 -4.140625 C 8.382812 -3.421875 9.773438 -3.0625 11.671875 -3.0625 C 13.679688 -3.0625 16.34375 -3.238281 19.65625 -3.59375 Z M 6.484375 -11.5 L 13.71875 -12.15625 C 15.070312 -12.25 16.054688 -12.535156 16.671875 -13.015625 C 17.296875 -13.503906 17.703125 -14.359375 17.890625 -15.578125 C 18.066406 -16.960938 17.832031 -17.816406 17.1875 -18.140625 C 16.550781 -18.472656 15.257812 -18.640625 13.3125 -18.640625 C 11.0625 -18.640625 9.46875 -18.171875 8.53125 -17.234375 C 7.601562 -16.304688 6.921875 -14.394531 6.484375 -11.5 Z M 6.484375 -11.5 "/></g></g></g><g fill="#242424" fill-opacity="1"><g transform="translate(147.398941, 316.539505)"><g><path d="M 10.125 -31.0625 L 6.609375 -6.171875 C 6.460938 -5.191406 6.566406 -4.5 6.921875 -4.09375 C 7.273438 -3.695312 7.957031 -3.5 8.96875 -3.5 L 11 -3.5 L 11.1875 -0.140625 C 10.382812 0.222656 9.007812 0.40625 7.0625 0.40625 C 5.34375 0.40625 4.046875 -0.0976562 3.171875 -1.109375 C 2.296875 -2.117188 1.976562 -3.539062 2.21875 -5.375 L 5.859375 -31.0625 Z M 10.125 -31.0625 "/></g></g></g><g fill="#242424" fill-opacity="1"><g transform="translate(167.72302, 316.539505)"><g><path d="M 15.125 -29.46875 L 5.6875 -24.265625 L 4.390625 -26.265625 L 13.09375 -32.75 Z M 5.90625 0 L 1.59375 0 L 4.65625 -21.65625 L 8.96875 -21.65625 Z M 5.90625 0 "/></g></g></g><g fill="#242424" fill-opacity="1"><g transform="translate(186.005996, 316.539505)"><g><path d="M 18.1875 -3.546875 L 18.5 -0.625 C 16.28125 0.144531 13.738281 0.53125 10.875 0.53125 C 7.050781 0.53125 4.457031 -0.351562 3.09375 -2.125 C 1.738281 -3.90625 1.359375 -6.863281 1.953125 -11 C 2.515625 -15.144531 3.664062 -18.050781 5.40625 -19.71875 C 7.15625 -21.394531 9.894531 -22.234375 13.625 -22.234375 C 16.519531 -22.234375 18.882812 -21.847656 20.71875 -21.078125 L 20.0625 -18.421875 C 18.28125 -18.535156 16.351562 -18.59375 14.28125 -18.59375 C 11.6875 -18.59375 9.816406 -18.066406 8.671875 -17.015625 C 7.535156 -15.960938 6.773438 -13.851562 6.390625 -10.6875 C 6.003906 -7.53125 6.171875 -5.46875 6.890625 -4.5 C 7.617188 -3.539062 9.210938 -3.0625 11.671875 -3.0625 C 14.179688 -3.0625 16.351562 -3.222656 18.1875 -3.546875 Z M 18.1875 -3.546875 "/></g></g></g><g fill="#242424" fill-opacity="1"><g transform="translate(214.672001, 316.539505)"><g><path d="M 6.96875 -30.890625 L 9.015625 -30.890625 C 9.421875 -30.890625 9.726562 -30.769531 9.9375 -30.53125 C 10.144531 -30.289062 10.21875 -29.960938 10.15625 -29.546875 L 9.84375 -27.0625 C 9.726562 -26.269531 9.285156 -25.875 8.515625 -25.875 L 6.484375 -25.875 C 5.585938 -25.875 5.1875 -26.332031 5.28125 -27.25 L 5.6875 -29.734375 C 5.738281 -30.503906 6.164062 -30.890625 6.96875 -30.890625 Z M 5.90625 0 L 1.640625 0 L 4.65625 -21.65625 L 8.921875 -21.65625 Z M 5.90625 0 "/></g></g></g><g fill="#242424" fill-opacity="1"><g transform="translate(232.910597, 316.539505)"><g><path d="M 20.40625 0 L 17.046875 0 L 17.21875 -4 C 14.613281 -0.976562 11.507812 0.53125 7.90625 0.53125 C 5.269531 0.53125 3.492188 -0.320312 2.578125 -2.03125 C 1.660156 -3.75 1.492188 -6.769531 2.078125 -11.09375 C 2.410156 -13.488281 2.867188 -15.445312 3.453125 -16.96875 C 4.046875 -18.5 4.832031 -19.632812 5.8125 -20.375 C 6.789062 -21.113281 7.796875 -21.609375 8.828125 -21.859375 C 9.867188 -22.109375 11.203125 -22.234375 12.828125 -22.234375 C 16.347656 -22.234375 19.882812 -21.847656 23.4375 -21.078125 Z M 17.171875 -7.8125 L 18.71875 -18.546875 C 16 -18.609375 14.476562 -18.640625 14.15625 -18.640625 C 12.613281 -18.640625 11.441406 -18.5625 10.640625 -18.40625 C 9.847656 -18.257812 9.144531 -17.882812 8.53125 -17.28125 C 7.925781 -16.675781 7.484375 -15.898438 7.203125 -14.953125 C 6.929688 -14.003906 6.660156 -12.613281 6.390625 -10.78125 C 5.972656 -7.5625 5.921875 -5.488281 6.234375 -4.5625 C 6.546875 -3.644531 7.394531 -3.1875 8.78125 -3.1875 C 10.144531 -3.1875 11.476562 -3.5625 12.78125 -4.3125 C 14.082031 -5.070312 15.546875 -6.238281 17.171875 -7.8125 Z M 17.171875 -7.8125 "/></g></g></g><g fill="#242424" fill-opacity="1"><g transform="translate(265.481322, 316.539505)"><g><path d="M 12.5625 -8.078125 L 6.75 -10.734375 C 5.113281 -11.503906 3.957031 -12.367188 3.28125 -13.328125 C 2.601562 -14.296875 2.367188 -15.535156 2.578125 -17.046875 C 2.804688 -19.023438 3.644531 -20.398438 5.09375 -21.171875 C 6.550781 -21.941406 8.757812 -22.296875 11.71875 -22.234375 C 15.0625 -22.171875 18.148438 -21.921875 20.984375 -21.484375 L 20.453125 -18.421875 C 16.703125 -18.535156 13.832031 -18.609375 11.84375 -18.640625 C 9.894531 -18.640625 8.585938 -18.535156 7.921875 -18.328125 C 7.253906 -18.117188 6.863281 -17.585938 6.75 -16.734375 C 6.65625 -15.992188 6.789062 -15.445312 7.15625 -15.09375 C 7.53125 -14.738281 8.25 -14.320312 9.3125 -13.84375 L 15.171875 -11.1875 C 16.953125 -10.351562 18.164062 -9.5 18.8125 -8.625 C 19.46875 -7.757812 19.691406 -6.523438 19.484375 -4.921875 C 19.359375 -3.953125 19.101562 -3.132812 18.71875 -2.46875 C 18.34375 -1.800781 17.894531 -1.273438 17.375 -0.890625 C 16.851562 -0.503906 16.140625 -0.207031 15.234375 0 C 14.335938 0.207031 13.453125 0.335938 12.578125 0.390625 C 11.703125 0.453125 10.585938 0.484375 9.234375 0.484375 C 7.804688 0.484375 6.6875 0.460938 5.875 0.421875 C 5.0625 0.378906 4.160156 0.289062 3.171875 0.15625 C 2.179688 0.0195312 1.40625 -0.078125 0.84375 -0.140625 L 1.328125 -3.328125 C 2.984375 -3.179688 5.25 -3.109375 8.125 -3.109375 C 10.84375 -3.109375 12.675781 -3.253906 13.625 -3.546875 C 14.570312 -3.847656 15.117188 -4.441406 15.265625 -5.328125 C 15.296875 -5.472656 15.3125 -5.617188 15.3125 -5.765625 C 15.3125 -5.910156 15.300781 -6.035156 15.28125 -6.140625 C 15.269531 -6.242188 15.226562 -6.347656 15.15625 -6.453125 C 15.082031 -6.554688 15.019531 -6.644531 14.96875 -6.71875 C 14.925781 -6.789062 14.847656 -6.867188 14.734375 -6.953125 C 14.617188 -7.046875 14.515625 -7.125 14.421875 -7.1875 C 14.328125 -7.25 14.191406 -7.320312 14.015625 -7.40625 C 13.835938 -7.5 13.695312 -7.566406 13.59375 -7.609375 C 13.5 -7.648438 13.335938 -7.722656 13.109375 -7.828125 C 12.890625 -7.929688 12.707031 -8.015625 12.5625 -8.078125 Z M 12.5625 -8.078125 "/></g></g></g></svg>